<svg width="346" height="343" viewBox="0 0 346 343" fill="none" xmlns="http://www.w3.org/2000/svg">
<path d="M152.83 1.10115C113.505 6.2204 79.3095 22.4314 51.9532 49.0121C28.3453 71.9174 12.497 99.5481 4.54004 131.708C1.1205 145.556 -0.0631822 156.188 0.00257811 171.743C0.0683385 199.964 5.65797 223.198 18.4813 248.794C31.3045 274.259 51.5587 297.033 76.2847 313.572C109.297 335.625 151.185 346.257 188.998 342.122C232.4 337.331 267.055 321.12 296.253 291.783C335.709 252.076 352.281 200.752 343.863 143.521C338.997 109.918 319.598 72.9019 294.411 48.9465C270.607 26.3693 242.001 11.0115 210.699 4.05456C192.746 0.116679 169.665 -1.13032 152.83 1.10115ZM194.325 22.7595C241.738 29.6508 283.627 60.0382 305.328 103.29C311.904 116.415 316.639 131.248 319.006 145.818C320.65 155.926 320.65 183.032 319.006 192.417C314.6 217.225 305.657 238.228 290.664 258.376C288.164 261.789 281.654 269.009 276.262 274.39L266.464 284.104L266.858 289.158L267.253 294.146L265.345 286.926C263.11 278.329 261.137 273.538 258.243 269.731C257.06 268.155 256.073 266.515 256.073 266.055C256.139 265.662 257.783 264.086 259.822 262.642C263.504 260.017 268.568 254.701 271.33 250.5C272.316 249.122 273.697 248.007 275.078 247.613C278.366 246.694 282.115 242.822 282.969 239.474C283.89 236.258 283.561 234.749 281.325 231.402L279.682 229.039L281.128 222.542C282.575 216.11 282.575 215.979 281.457 205.871C280.865 200.293 280.405 194.911 280.405 193.992C280.405 191.695 275.341 181.588 271.33 176.009C264.622 166.558 262.123 164.326 252.39 159.601C241.08 154.023 236.937 153.103 225.495 153.563C215.499 153.957 207.082 155.86 199.388 159.535C191.628 163.211 182.816 171.94 174.334 184.476C171.44 188.676 171.242 189.201 171.242 193.27C171.242 196.42 170.585 199.505 168.875 204.821C165.982 213.812 166.113 215.913 170.256 222.935C171.9 225.692 173.215 228.317 173.215 228.645C173.215 229.039 172.361 230.286 171.242 231.467C167.757 235.209 167.823 240.984 171.44 244.857C173.478 247.022 178.476 249.057 179.726 248.204C180.054 248.007 179.791 246.366 179.068 244.594C177.095 239.409 177.621 239.212 180.054 244.266C184.855 254.373 191.365 260.871 201.821 265.989C209.712 269.796 216.485 271.503 226.153 271.962C230.493 272.159 233.452 272.552 232.729 272.815C228.783 274.193 210.633 271.634 202.281 268.484L197.941 266.843L196.824 268.352C194.39 271.503 189.589 281.938 188.406 286.598C187.749 289.289 186.828 294.736 186.367 298.674C185.052 310.947 184.526 312.063 183.145 304.843C180.844 292.898 165.39 236.324 163.483 232.911C163.22 232.386 159.077 231.008 154.277 229.827C149.476 228.58 144.215 227.136 142.571 226.479C140.993 225.889 139.48 225.561 139.283 225.758C139.086 225.955 140.203 227.857 141.782 229.958C143.36 232.058 145.596 235.274 146.779 237.046C149.871 241.969 157.038 257.326 159.143 263.43C161.444 269.928 161.247 270.387 154.342 276.228C151.712 278.46 149.542 280.757 149.542 281.348C149.542 281.872 152.567 285.154 156.25 288.567C162.628 294.539 162.891 294.933 162.365 296.771L161.773 298.74L161.51 296.705C161.379 295.13 159.8 293.358 154.474 288.304C150.66 284.826 147.569 281.544 147.569 281.019C147.569 280.56 149.936 278.132 152.764 275.637C159.997 269.468 160.063 269.074 157.104 261.526C152.107 248.86 141.387 229.302 137.442 225.626C136.193 224.445 135.732 223.329 135.732 221.557C135.732 218.866 136.324 218.21 139.677 217.094C143.097 215.979 146.451 213.419 148.752 210.203C150.594 207.643 151.383 207.184 156.447 205.608C159.537 204.624 162.036 203.574 162.036 203.312C162.036 202.983 160.853 201.277 159.406 199.57C156.578 196.157 156.052 193.73 157.959 193.139C158.551 192.942 160.853 192.614 163.023 192.351C165.193 192.154 167.165 191.826 167.429 191.629C167.692 191.498 167.034 189.004 165.982 186.116C164.864 183.228 164.009 180.472 164.009 180.078C164.009 179.619 165.719 178.765 167.823 178.044C172.492 176.534 180.449 172.596 180.449 171.809C180.449 171.481 178.016 169.905 175.122 168.33C169.401 165.311 163.614 160.717 164.469 159.929C164.732 159.666 167.099 158.748 169.598 157.96C175.911 155.86 182.619 152.776 187.88 149.428C190.313 147.919 192.286 146.54 192.155 146.475C191.891 146.278 174.071 138.665 172.361 138.074C171.571 137.746 171.374 137.352 171.703 136.762C171.966 136.236 176.306 132.036 181.304 127.442C186.236 122.782 190.313 118.778 190.313 118.516C190.313 117.991 186.236 117.269 174.202 115.562C169.862 114.906 166.048 114.25 165.785 113.987C165.456 113.725 168.481 107.949 172.492 101.189C179.002 90.0971 180.252 87.7345 179.594 87.7345C179.463 87.7345 174.07 89.6382 167.626 92.0008C158.222 95.4136 155.657 96.0701 155 95.4136C153.553 93.9696 152.172 83.1404 152.172 73.4266V64.0417L146.845 66.8638C140.599 70.2114 132.247 76.7085 128.367 81.2374C126.92 83.0094 125.408 84.4534 125.145 84.4534C124.815 84.4534 122.317 81.4343 119.489 77.6929C114.623 71.2609 106.403 62.1384 105.482 62.1384C105.219 62.1384 104.693 65.0262 104.298 68.5046C103.115 78.3494 99.6294 90.3599 97.9194 90.3599C97.4592 90.3599 94.303 89.0475 90.9489 87.4718C85.5568 84.9782 77.3366 82.4839 74.3118 82.4839C73.523 82.4839 73.9174 83.6652 75.8245 87.5377C78.7178 93.3789 81.3481 102.502 81.0194 105.652L80.8222 107.752L74.9035 108.212C57.6744 109.525 49.5859 110.312 49.5859 110.64C49.5859 110.903 52.4794 113.987 56.0304 117.597C62.6722 124.291 67.5385 131.445 67.2096 133.939C67.0781 134.858 63.7244 137.614 56.8195 142.406C51.2299 146.278 46.5609 149.756 46.4294 150.084C46.2979 150.413 47.0212 150.872 48.0734 151.135C55.1097 152.644 58.1347 153.629 60.6336 155.072C64.0531 157.107 67.6042 160.126 69.38 162.62L70.6947 164.458L63.3298 171.743C57.1483 177.912 56.0962 179.159 56.8853 179.881C57.4114 180.34 61.357 181.85 65.6972 183.163C70.0373 184.476 73.8517 185.854 74.1804 186.182C74.5091 186.51 73.9831 189.857 72.7334 194.451C71.6158 198.718 70.892 202.458 71.0892 202.786C71.4186 203.377 82.2685 202.852 84.0441 202.196C85.6883 201.605 86.3457 203.18 86.8066 208.366C87.0696 211.385 87.464 213.944 87.727 214.075C88.2529 214.403 95.6178 211.253 95.6178 210.728C95.6178 210.531 94.7632 209.153 93.7114 207.643C89.3054 201.211 86.28 193.139 83.9126 181.26C82.3349 173.712 81.6111 166.492 82.4006 166.492C82.6636 166.492 83.1238 168.593 83.3867 171.152C84.7022 185.788 91.4755 204.362 97.6565 210.531C99.2349 212.106 102.655 214.338 105.942 215.847L111.467 218.406L111.269 220.835L111.072 223.263L96.4731 228.12L81.874 232.977L80.5592 236.981C79.8354 239.212 76.8106 249.385 73.9174 259.689C68.5248 278.394 66.8809 283.12 67.67 277.541C67.9988 274.784 67.8672 274.522 64.5135 270.846C43.536 248.269 30.5812 221.819 25.5176 191.104C23.6106 179.881 23.8079 155.86 25.8464 144.834C31.5675 113.856 44.1936 88.5879 64.8423 66.9951C98.5118 31.8823 145.662 15.737 194.325 22.7595ZM105.351 234.88C100.616 244.66 92.1987 268.09 92.9218 269.337C93.2505 269.928 96.0787 272.618 99.2349 275.375C102.457 278.132 105.154 280.691 105.285 281.151C105.482 281.61 104.496 283.054 103.115 284.432C101.668 285.942 101.142 286.27 101.799 285.285C104.364 281.282 104.561 281.807 97.9194 275.703C93.4477 271.568 91.6727 269.534 91.6727 268.418C91.6727 265.005 104.693 232.124 106.074 232.124C106.403 232.124 106.074 233.371 105.351 234.88Z" fill="black"/>
</svg>
